Coordinates
version=1
nRows=13
nColumns=38
inDegrees=no

Units are S.I. units (second, meters, Newtons, ...)
If the header above contains a line with 'inDegrees', this indicates whether rotational values are in degrees (yes) or radians (no).

endheader
time	pelvis_tilt	pelvis_list	pelvis_rotation	pelvis_tx	pelvis_ty	pelvis_tz	hip_flexion_r	hip_adduction_r	hip_rotation_r	knee_angle_r	ankle_angle_r	subtalar_angle_r	mtp_angle_r	hip_flexion_l	hip_adduction_l	hip_rotation_l	knee_angle_l	ankle_angle_l	subtalar_angle_l	mtp_angle_l	lumbar_extension	lumbar_bending	lumbar_rotation	arm_flex_r	arm_add_r	arm_rot_r	elbow_flex_r	pro_sup_r	wrist_flex_r	wrist_dev_r	arm_flex_l	arm_add_l	arm_rot_l	elbow_flex_l	pro_sup_l	wrist_flex_l	wrist_dev_l
1.73	-2.89489	1.46452	-1.96592	0.772024	0.844537	0.9352	-0.146247	-0.148304	-0.199311	0.822911	-0.0889551	0	0	0.227409	0.0601447	-0.441391	0.276247	-0.031839	0	0	-0.18065	-0.0355712	0.227732	0.0427913	-0.317146	0.860051	0.345998	0.790997	0	0	-0.0221029	-0.201459	0.159916	0.478535	1.5708	0	0
1.74	-2.83579	1.46806	-2.02149	0.77099	0.854591	0.935121	-0.0999872	-0.161974	-0.180103	0.888526	-0.145961	0	0	0.223628	0.0688027	-0.437718	0.277942	-0.0244671	0	0	-0.172177	-0.0397216	0.228079	0.0385996	-0.319977	0.869209	0.350669	0.767258	0	0	-0.0233708	-0.205922	0.172078	0.485209	1.5708	0	0
1.75	-2.76686	1.46726	-2.08758	0.770388	0.864072	0.935522	-0.0562411	-0.175569	-0.157264	0.950672	-0.203885	0	0	0.219855	0.0779425	-0.433576	0.285721	-0.01755	0	0	-0.168816	-0.0478317	0.227617	0.0364922	-0.31838	0.85962	0.350908	0.769136	0	0	-0.0229257	-0.211294	0.179824	0.491238	1.5708	0	0
1.76	-2.71078	1.46575	-2.14185	0.769816	0.87342	0.93592	-0.0132874	-0.185848	-0.131649	1.00947	-0.258514	0	0	0.212624	0.0864349	-0.429379	0.288634	-0.0104272	0	0	-0.166736	-0.05488	0.226964	0.0351321	-0.317495	0.852903	0.351412	0.775217	0	0	-0.0237822	-0.216461	0.186424	0.499501	1.5708	0	0
1.77	-2.67051	1.46286	-2.18077	0.769311	0.882563	0.936644	0.0268941	-0.192492	-0.104384	1.06352	-0.301535	0	0	0.202721	0.0941894	-0.424822	0.290122	-0.00339674	0	0	-0.167004	-0.061085	0.225035	0.0359535	-0.317887	0.858074	0.353539	0.765827	0	0	-0.0245601	-0.220023	0.187101	0.505256	1.5708	0	0
1.78	-2.6428	1.459	-2.20648	0.768746	0.891607	0.9376	0.0627983	-0.196884	-0.0788948	1.11093	-0.324852	0	0	0.190094	0.101838	-0.419873	0.289454	0.00363812	0	0	-0.168941	-0.0666796	0.221728	0.0371724	-0.316817	0.855548	0.354003	0.768282	0	0	-0.0260455	-0.223928	0.190323	0.512904	1.5708	0	0
1.79	-2.62788	1.45465	-2.21848	0.768018	0.900563	0.938768	0.0946249	-0.199477	-0.0563056	1.15224	-0.3311	0	0	0.17481	0.109274	-0.415386	0.286134	0.0103859	0	0	-0.172168	-0.0710276	0.216704	0.0392506	-0.316127	0.854861	0.355079	0.771054	0	0	-0.0272868	-0.226378	0.191889	0.519136	1.5708	0	0
1.8	-2.62792	1.45033	-2.21431	0.767135	0.909434	0.940132	0.124194	-0.199567	-0.0357455	1.19139	-0.321875	0	0	0.156752	0.116081	-0.411007	0.279441	0.0158545	0	0	-0.1766	-0.0734655	0.209914	0.0418115	-0.315336	0.854416	0.356226	0.774693	0	0	-0.028136	-0.227544	0.192176	0.522999	1.5708	0	0
1.81	-2.77822	1.44601	-2.05979	0.76525	0.917358	0.943977	0.140464	-0.188465	-0.0290485	1.2186	-0.30963	0	0	0.127005	0.10812	-0.402297	0.269341	0.0195737	0	0	-0.195421	-0.0561432	0.205352	0.0461574	-0.316804	0.827199	0.352906	0.812997	0	0	-0.0169199	-0.214171	0.180933	0.501602	1.5708	0	0
1.82	-2.66302	1.44522	-2.16815	0.764928	0.926723	0.943157	0.180791	-0.192041	-0.000634605	1.26119	-0.263581	0	0	0.118873	0.126056	-0.397197	0.260753	0.0267175	0	0	-0.185976	-0.0710137	0.194419	0.0458874	-0.309148	0.823181	0.35107	0.822331	0	0	-0.0230499	-0.222635	0.187767	0.512837	1.57065	0	0
1.83	-2.81885	1.44372	-2.00677	0.762875	0.933977	0.946784	0.19717	-0.178934	-0.00166924	1.27746	-0.249141	0	0	0.0922311	0.114982	-0.38654	0.249371	0.0275002	0	0	-0.203157	-0.0495645	0.188378	0.0527418	-0.31427	0.821102	0.351421	0.826925	0	0	-0.00581908	-0.20192	0.158214	0.476517	1.5708	0	0
1.84	-2.71948	1.44515	-2.09719	0.762315	0.943045	0.945944	0.232099	-0.179867	0.0205564	1.30419	-0.218038	0	0	0.0847819	0.130178	-0.379906	0.240707	0.0325386	0	0	-0.193652	-0.0611012	0.175596	0.0528597	-0.307234	0.819178	0.349235	0.833719	0	0	-0.00679005	-0.204929	0.154218	0.473819	1.5708	0	0
1.85	-2.75294	1.44462	-2.05538	0.761001	0.950961	0.947296	0.253832	-0.173878	0.027325	1.31629	-0.203124	0	0	0.0683678	0.130625	-0.372028	0.232913	0.0364171	0	0	-0.198213	-0.0555857	0.165046	0.0574232	-0.307861	0.829919	0.350278	0.820482	0	0	-0.000727009	-0.201228	0.155933	0.463142	1.5708	0	0
